<?xml version="1.0" encoding="UTF-8"?>
<svg xmlns="http://www.w3.org/2000/svg" xmlns:xlink="http://www.w3.org/1999/xlink" version="1.1" id="Ebene_1" x="0px" y="0px" viewBox="0 0 274.93 70.27" style="enable-background:new 0 0 274.93 70.27;" xml:space="preserve">
<style type="text/css">
	.st0{fill:#FFED00;}
</style>
<g>
	<g>
		<path d="M19.26,2.26c0.29,0,0.41,0.15,0.38,0.44l-0.59,3.85c-0.06,0.3-0.26,0.44-0.56,0.44H8.25l-0.74,4.59h9.42    c0.29,0,0.44,0.15,0.41,0.44l-0.59,3.65c-0.06,0.29-0.24,0.44-0.53,0.44H6.81l-0.68,4.44h10.24c0.29,0,0.41,0.15,0.38,0.44    l-0.62,3.85c-0.03,0.3-0.23,0.44-0.53,0.44H0.37c-0.29,0-0.41-0.15-0.35-0.47l3.5-22.1c0.03-0.29,0.21-0.47,0.5-0.47H19.26z"></path>
		<path d="M27.81,2.26c0.29,0,0.41,0.18,0.38,0.47l-3.5,22.1c-0.06,0.32-0.24,0.47-0.53,0.47h-4.24c-0.29,0-0.41-0.15-0.38-0.47    l3.5-22.1c0.03-0.29,0.21-0.47,0.5-0.47H27.81z"></path>
		<path d="M44.46,16.88l-0.15,0.91c-0.09,0.62-0.32,0.79-0.97,0.79h-9.18c-0.32,2.18,0.35,2.44,2.65,2.44h5.38    c0.29,0,0.41,0.15,0.38,0.44l-0.47,3c-0.06,0.35-0.24,0.44-0.5,0.5c-1.68,0.35-4.03,0.47-6.06,0.47c-6.15,0-7.47-1.68-6.38-8.47    c1.06-6.83,2.94-8.5,9.09-8.5C44.31,8.47,45.52,10.14,44.46,16.88z M34.61,15.47h4.94c0.29-2-0.29-2.59-2-2.59    C35.81,12.88,34.93,13.47,34.61,15.47z"></path>
		<path d="M54.43,2.26c0.29,0,0.41,0.18,0.38,0.47l-1.82,11.53l4.74-5.36c0.18-0.18,0.41-0.29,0.68-0.29h4.71    c0.53,0,0.47,0.23,0.18,0.56l-5.44,6.03l4.09,9.3c0.15,0.38,0.18,0.79-0.62,0.79h-4.5c-0.29,0-0.5-0.12-0.59-0.32l-3.59-8.62    l-1.32,8.47c-0.06,0.32-0.24,0.47-0.53,0.47h-4.24c-0.29,0-0.41-0.15-0.35-0.47l3.47-22.1c0.03-0.29,0.21-0.47,0.5-0.47H54.43z"></path>
		<path d="M72.93,4.02c0.32-0.09,0.44,0.15,0.38,0.47l-0.68,4.24h2.53c0.35,0,0.5,0.15,0.47,0.44l-0.47,2.85    c-0.06,0.32-0.26,0.47-0.59,0.47h-2.53l-1.12,7.06c-0.21,1.27,0.26,1.47,1.44,1.47h1.09c0.35,0,0.5,0.15,0.47,0.44l-0.47,3.06    c-0.09,0.38-0.29,0.53-0.62,0.59c-1.29,0.24-2.18,0.32-2.97,0.32c-2.77,0-5-0.12-4.35-4.03l1.38-8.91h-1.74    c-0.32,0-0.47-0.15-0.41-0.47l0.44-2.85c0.03-0.29,0.24-0.44,0.59-0.44h1.74l0.47-3.12c0.06-0.32,0.21-0.38,0.53-0.47L72.93,4.02z    "></path>
		<path d="M88.37,8.82c0.32,0.06,0.47,0.21,0.41,0.62l-0.5,3c-0.03,0.29-0.24,0.44-0.56,0.44h-2.91c-1.26,0-1.82,0.21-2.03,1.47    l-1.65,10.47c-0.06,0.32-0.24,0.47-0.53,0.47h-4.27c-0.29,0-0.41-0.15-0.35-0.47l1.88-11.86c0.62-3.91,3.21-4.5,6.36-4.5    C85.14,8.47,87.17,8.55,88.37,8.82z"></path>
		<path d="M105.23,16.97c-1.09,6.8-2.85,8.47-9.18,8.47c-6.33,0-7.56-1.68-6.5-8.47c1.09-6.83,2.88-8.5,9.21-8.5    S106.31,10.14,105.23,16.97z M94.72,16.97c-0.53,3.24-0.21,4.06,2.03,4.06c2.24,0,2.79-0.82,3.32-4.06    c0.53-3.26,0.21-4.09-2.03-4.09C95.81,12.88,95.25,13.7,94.72,16.97z"></path>
		<path d="M131.58,2.76c0.41,0.15,0.53,0.32,0.5,0.59l-0.47,2.91c-0.09,0.41-0.29,0.56-0.74,0.56h-7.12c-1.41,0-2.24,0.53-2.41,1.56    l-0.06,0.35c-0.12,0.82,0.23,1.44,1.21,1.85l4.8,1.88c2.71,1.09,4.03,2.32,3.41,6.3l-0.12,0.76c-0.68,4.3-4.21,5.91-9.77,5.91    c-2.09,0-4.38-0.21-7.18-0.74c-0.44-0.09-0.56-0.29-0.5-0.74l0.44-2.65c0.06-0.44,0.29-0.62,0.74-0.62h8.5    c1.35,0,2.15-0.44,2.32-1.44l0.03-0.29c0.21-1.12-0.41-1.56-1.71-2.06l-4.8-1.85c-2.38-0.88-3.47-2.44-2.85-6.44l0.09-0.65    c0.71-4.3,3.71-5.88,9.42-5.88C127.78,2.08,129.43,2.29,131.58,2.76z"></path>
		<path d="M148.4,13.76l-1.59,10.12c-0.12,0.59-0.35,0.82-0.85,0.94c-2.68,0.53-5.3,0.62-6.88,0.62c-4.68,0-7.21-0.32-6.5-5.27    c0.74-4.18,3.03-4.94,7.24-4.94l3.24-0.03l0.09-0.59c0.18-1.24-0.5-1.74-1.97-1.74h-5.77c-0.29,0-0.38-0.18-0.32-0.53l0.47-2.91    c0.06-0.35,0.18-0.41,0.47-0.47c1.91-0.38,3.74-0.5,5.86-0.5C148.31,8.47,148.9,10.61,148.4,13.76z M139.81,18.29    c-1.47,0-1.94,0.5-2.09,1.53c-0.18,1.18,0.24,1.5,1.82,1.5c0.44,0,1.8-0.06,2.56-0.24l0.44-2.79H139.81z"></path>
		<path d="M165.96,13.76l-1.59,10.12c-0.12,0.59-0.35,0.82-0.85,0.94c-2.68,0.53-5.3,0.62-6.89,0.62c-4.68,0-7.21-0.32-6.5-5.27    c0.74-4.18,3.03-4.94,7.24-4.94l3.24-0.03l0.09-0.59c0.18-1.24-0.5-1.74-1.97-1.74h-5.77c-0.3,0-0.38-0.18-0.32-0.53l0.47-2.91    c0.06-0.35,0.18-0.41,0.47-0.47c1.91-0.38,3.74-0.5,5.85-0.5C165.87,8.47,166.46,10.61,165.96,13.76z M157.37,18.29    c-1.47,0-1.94,0.5-2.09,1.53c-0.18,1.18,0.23,1.5,1.82,1.5c0.44,0,1.8-0.06,2.56-0.24l0.44-2.79H157.37z"></path>
		<path d="M181.81,8.94c0.35,0.09,0.47,0.21,0.41,0.47l-0.44,2.71c-0.06,0.35-0.18,0.47-0.56,0.47h-5.27    c-1.03,0-1.56,0.23-1.65,0.82l-0.03,0.26c-0.06,0.41,0.21,0.71,1,1l3.5,1.21c2.29,0.79,2.79,2.35,2.44,4.56l-0.09,0.53    c-0.56,3.47-3.5,4.47-7.09,4.47c-2.59,0-4.56-0.09-6.41-0.29c-0.38,0-0.5-0.12-0.44-0.44l0.47-2.94c0.06-0.35,0.21-0.47,0.59-0.47    h6.33c1.18,0,1.53-0.15,1.62-0.71l0.03-0.21c0.06-0.44-0.23-0.71-1.41-1.12l-3.15-1.12c-2.24-0.77-2.71-2.62-2.38-4.62l0.09-0.53    c0.47-3.12,3-4.53,7.8-4.53C178.37,8.47,180.14,8.58,181.81,8.94z"></path>
	</g>
	<path d="M199.1,35.69c5.43-3.91,20.59-14,20.59-14C212.58,7.93,192.1,3.01,192.1,3.01c13.71,2.2,35.58,8.15,58.61,14.75   c13.72,3.93,22.36,7.68,22.36,7.68c-67.04,0-112.13,44.84-112.13,44.84S181.86,48.14,199.1,35.69"></path>
	<path class="st0" d="M274.93,22.42c0,0-9.3-4.7-26.14-9.87C223.47,4.77,188.29,0,188.29,0s27.62,5.6,33.23,18.69   c0,0-15.12,10.08-20.57,14c-17.25,12.42-38.17,34.55-38.17,34.55S207.87,22.42,274.93,22.42"></path>
</g>
</svg>
